<svg width="32" height="32" viewBox="0 0 32 32" fill="none" xmlns="http://www.w3.org/2000/svg">
<path fill-rule="evenodd" clip-rule="evenodd" d="M12.572 11.9587H17.524V14.4253C18.2374 13.0067 20.0667 11.732 22.8147 11.732C28.0827 11.732 29.3334 14.556 29.3334 19.7373V29.3333H24V20.9173C24 17.9667 23.2867 16.3027 21.4707 16.3027C18.952 16.3027 17.9054 18.096 17.9054 20.916V29.3333H12.572V11.9587V11.9587ZM3.42669 29.1067H8.76002V11.732H3.42669V29.1067V29.1067ZM9.52402 6.06666C9.52422 6.51369 9.43556 6.9563 9.2632 7.36877C9.09084 7.78124 8.83822 8.15534 8.52002 8.46932C7.87522 9.11016 7.00243 9.46886 6.09335 9.46666C5.18587 9.46605 4.3151 9.10826 3.66935 8.47066C3.3523 8.15561 3.10053 7.78109 2.92848 7.36857C2.75642 6.95604 2.66746 6.51362 2.66669 6.06666C2.66669 5.16399 3.02669 4.29999 3.67069 3.66266C4.31587 3.0242 5.18701 2.66626 6.09469 2.66666C7.00402 2.66666 7.87602 3.02532 8.52002 3.66266C9.16269 4.29999 9.52402 5.16399 9.52402 6.06666Z" fill="white"/>
</svg>
