<svg id="Layer_1" data-name="Layer 1" xmlns="http://www.w3.org/2000/svg" viewBox="0 0 100.05 80.58"><defs><style>.cls-1{fill:#0ea7c9;}.cls-2{fill:#eb7d00;}.cls-3{fill:#6e2d7d;}</style></defs><rect class="cls-1" x="34.74" y="-0.06" width="30.56" height="37.75"/><polygon class="cls-2" points="50.02 17.85 55.38 12.91 58.95 19.26 65.58 16.22 67.01 23.37 74.25 22.52 73.4 29.76 80.55 31.19 77.51 37.81 83.86 41.38 78.92 46.74 83.86 52.1 77.51 55.67 80.55 62.3 73.4 63.73 74.25 70.97 67.01 70.12 65.58 77.27 58.95 74.22 55.38 80.58 50.02 75.64 44.66 80.58 41.09 74.22 34.47 77.27 33.04 70.12 25.8 70.97 26.65 63.73 19.5 62.3 22.54 55.67 16.19 52.1 21.13 46.74 16.19 41.38 22.54 37.81 19.5 31.19 26.65 29.76 25.8 22.52 33.04 23.37 34.47 16.22 41.09 19.26 44.66 12.91 50.02 17.85"/><path class="cls-1" d="M75,46.74A24.93,24.93,0,1,0,50,71.67,24.93,24.93,0,0,0,75,46.74"/><path class="cls-3" d="M38.9,52.88V39.26c0-.75-.07-1.19-.22-1.32a.35.35,0,0,0-.3-.11,2.77,2.77,0,0,0-.63.11,2.56,2.56,0,0,1-.68.12c-1.24,0-1.86-.82-1.86-2.45a2.9,2.9,0,0,1,.66-2,2.17,2.17,0,0,1,1.71-.75,12.1,12.1,0,0,1,1.23.09,10.18,10.18,0,0,0,1.22.1,11.39,11.39,0,0,0,1.32-.1q.87-.09,1.32-.09,1.74,0,1.74,2.07V51.9c0,1,.19,1.43.57,1.43a2.25,2.25,0,0,0,.6-.07,2.07,2.07,0,0,1,.57-.08c1.15,0,1.73.78,1.73,2.34,0,1.84-.79,2.76-2.38,2.76-.61,0-1.16,0-1.67-.08-1-.1-1.75-.15-2.15-.15s-1.08,0-2,.11-1.52.12-1.95.12c-1.72,0-2.57-.93-2.57-2.78,0-1.54.53-2.32,1.6-2.32a3.57,3.57,0,0,1,.78.14,3.87,3.87,0,0,0,.78.13c.33,0,.51-.19.53-.57"/><path class="cls-3" d="M53.24,45.07a4.84,4.84,0,0,1,2.56,1,1,1,0,0,1,1.13-.89c.85,0,1.26.33,1.25,1v2.54c0,.69-.37,1-1.14,1a2.17,2.17,0,0,1-.94-.14,1.74,1.74,0,0,1-.53-.69c-.4-.74-.89-1.12-1.47-1.12-.78,0-1.16.33-1.16,1a.87.87,0,0,0,.43.82,7.64,7.64,0,0,0,1.85.55c1.56.33,2.54,1,3,1.87a5,5,0,0,1,.41,2,4.52,4.52,0,0,1-1.13,3.2,3.74,3.74,0,0,1-2.89,1.23,4,4,0,0,1-2.83-1.21,1,1,0,0,1-1.08.85c-.87,0-1.28-.38-1.25-1.14l.08-1.37V54.45c0-.15,0-.25,0-.28,0-.74.43-1.12,1.27-1.12a1.25,1.25,0,0,1,1.51,1.07c.36,1,.93,1.42,1.71,1.42s1.27-.38,1.27-1.14-.41-1-1.22-1.19L52.89,53a3.58,3.58,0,0,1-3.19-3.84,4.33,4.33,0,0,1,1-3,3.24,3.24,0,0,1,2.55-1.12"/><path class="cls-3" d="M64.5,48.88v5.76c0,.43.16.64.47.64s.52-.29.52-.88V53c0-.78.34-1.17,1-1.17a1.13,1.13,0,0,1,1.06.5,4.05,4.05,0,0,1,.28,1.84,6.91,6.91,0,0,1-.39,2.62,2.9,2.9,0,0,1-3,1.76,3.25,3.25,0,0,1-2.44-1A3.5,3.5,0,0,1,61.16,55V48.88c0-.54-.16-.81-.47-.81H60c-.71,0-1.06-.42-1.06-1.27a2.05,2.05,0,0,1,.27-1.22,1.25,1.25,0,0,1,1-.33h.47c.29,0,.44-.16.44-.47V42.84q0-1.2,1.71-1.2a2.32,2.32,0,0,1,1.3.26,1.23,1.23,0,0,1,.33,1v1.87c0,.31.21.47.63.47h1.19c.85,0,1.27.47,1.27,1.42a1.77,1.77,0,0,1-.25,1.11,1,1,0,0,1-.84.29H65.41a1.39,1.39,0,0,0-.76.13c-.1.09-.15.32-.15.68"/></svg>