<svg id="Layer_1" data-name="Layer 1" xmlns="http://www.w3.org/2000/svg" viewBox="0 0 394.17 118.13"><defs><style>.cls-1{fill:#6e2d7d;}.cls-2{fill:#fff;}.cls-3{fill:#f3a759;}</style></defs><path class="cls-1" d="M306.85,72.94c-1.31-2.8-2.8-7.12-4.94-9.42-.53-.58-1.1-1.12-1.68-1.66.58-.55,1.15-1.08,1.68-1.66,2.14-2.31,3.63-6.62,4.94-9.42a18.83,18.83,0,0,1,4.25-6.39c1.08-1,2.31-1.74,3.44-2.58a18.85,18.85,0,0,0-10.12.54c-17.28,6-19.87,16.3-31.2,12.54v0c-21.05-9.54-46.6-16.54-73-19.57a19.71,19.71,0,0,0-1.68-3.93c-1.62-2.51-3.53-4.83-5.31-7.24a13.24,13.24,0,0,1-3.06-8.86c.05-.72,0-1.45,0-2.21a6.11,6.11,0,0,0-.92.24c-1,.46-2,.89-3,1.42a57.44,57.44,0,0,0-15.54,13c-1.74,2-3.43,4-5.12,6C126.87,34.86,99.14,45.89,89.34,61.9c10.32,16.87,40.53,28.28,82.55,28.28,36.3,0,73.52-8.44,102.19-21.62,10.61-3,13.51,7,30.34,12.81a18.85,18.85,0,0,0,10.12.54c-1.13-.84-2.36-1.62-3.44-2.58a19,19,0,0,1-4.25-6.39"/><path class="cls-2" d="M138.22,66.26a22.26,22.26,0,0,1-11.43,17c12.52,3.42,27.44,5.22,43.67,5.22A250.08,250.08,0,0,0,230.15,81a216.72,216.72,0,0,0,41.38-14.71Z"/><path class="cls-2" d="M123,61.92a7.21,7.21,0,1,1-7.2-7.2,7.2,7.2,0,0,1,7.2,7.2"/><path class="cls-1" d="M119.7,61.92a3.95,3.95,0,1,1-3.94-4,3.94,3.94,0,0,1,3.94,4"/><path class="cls-1" d="M148.87,81.66l.14.25c2.11,3.33,4,6.8,6.37,10,4.2,5.63,9.59,10,15.58,13.83a2.32,2.32,0,0,0,0-.54c-.16-.55-.35-1.09-.53-1.64-2.18-6.54-1.67-12.58,3.18-17.9A52.59,52.59,0,0,0,178,80.23a7.39,7.39,0,0,0,1.51-5.44c-6.57,1.37-13,1.69-19.41-.13,0,0-12.52,4.31-11.22,7"/><path class="cls-3" d="M40.11,35.38a12.73,12.73,0,0,1,1.65-3.14,7.3,7.3,0,0,1,.56-.55,7.3,7.3,0,0,1-.56-.55A12.73,12.73,0,0,1,40.11,28a6.32,6.32,0,0,0-1.42-2.13c-.36-.32-.77-.58-1.15-.87a6.28,6.28,0,0,1,3.38.19c5.76,2,6.62,5.43,10.4,4.18h0a83.18,83.18,0,0,1,24.33-6.52,7,7,0,0,1,.56-1.31c.54-.84,1.18-1.61,1.77-2.41a4.43,4.43,0,0,0,1-3c0-.24,0-.48,0-.73a1.2,1.2,0,0,1,.3.07c.34.16.68.3,1,.48a18.93,18.93,0,0,1,5.18,4.33q.87,1,1.71,2c12.91.36,22.16,4,25.43,9.38-2.92,4.77-10.62,8.23-21.45,9.17-.18.28-.37.55-.57.82a19.44,19.44,0,0,1-5.19,4.61.61.61,0,0,1,0-.18l.18-.55a5.94,5.94,0,0,0,0-4.45h-.44A84.67,84.67,0,0,1,51,33.93c-3.53-1-4.5,2.32-10.11,4.27a6.37,6.37,0,0,1-3.38.18c.38-.28.79-.54,1.15-.86a6.46,6.46,0,0,0,1.42-2.14"/><path class="cls-3" d="M40.11,97.49a12.73,12.73,0,0,1,1.65-3.14c.17-.19.36-.37.56-.56a7.3,7.3,0,0,1-.56-.55,12.73,12.73,0,0,1-1.65-3.14A6.42,6.42,0,0,0,38.69,88c-.36-.32-.77-.58-1.15-.86a6.27,6.27,0,0,1,3.38.18c5.76,2,6.62,5.44,10.4,4.18h0A83.19,83.19,0,0,1,75.65,85a7,7,0,0,1,.56-1.31c.54-.83,1.18-1.61,1.77-2.41a4.43,4.43,0,0,0,1-3c0-.24,0-.48,0-.73a1.84,1.84,0,0,1,.3.08c.34.15.68.29,1,.47a19.11,19.11,0,0,1,5.18,4.33c.58.66,1.15,1.34,1.71,2,12.91.36,22.16,4,25.43,9.38C109.71,98.58,102,102,91.18,103c-.18.28-.37.55-.57.82a19.27,19.27,0,0,1-5.19,4.61.61.61,0,0,1,0-.18l.18-.55a5.94,5.94,0,0,0,0-4.45h-.44A84.68,84.68,0,0,1,51,96c-3.53-1-4.5,2.32-10.11,4.27a6.37,6.37,0,0,1-3.38.18c.38-.28.79-.54,1.15-.86a6.42,6.42,0,0,0,1.42-2.13"/><path class="cls-3" d="M2.57,65.28a13,13,0,0,1,1.64-3.14c.18-.19.37-.37.56-.55-.19-.18-.38-.36-.56-.55a12.92,12.92,0,0,1-1.64-3.15,6.42,6.42,0,0,0-1.42-2.13C.79,55.44.38,55.18,0,54.9a6.38,6.38,0,0,1,3.38.18c5.76,2,6.62,5.44,10.4,4.18h0a83.1,83.1,0,0,1,24.33-6.52,5.68,5.68,0,0,1,.56-1.31c.54-.84,1.17-1.62,1.77-2.42a4.46,4.46,0,0,0,1-3c0-.24,0-.49,0-.74a2.17,2.17,0,0,1,.3.08c.34.15.68.3,1,.47A19.29,19.29,0,0,1,48,50.22c.58.66,1.14,1.33,1.71,2,12.91.36,22.16,4,25.42,9.37-2.91,4.78-10.61,8.24-21.44,9.17-.19.28-.38.56-.57.82a19.16,19.16,0,0,1-5.2,4.61,1,1,0,0,1,0-.18l.18-.54A5.89,5.89,0,0,0,48,71h-.44a84.5,84.5,0,0,1-34.07-7.21C10,62.84,9,66.15,3.38,68.09A6.18,6.18,0,0,1,0,68.27c.38-.28.79-.54,1.15-.86a6.42,6.42,0,0,0,1.42-2.13"/><path class="cls-3" d="M298.34,35.38A12.73,12.73,0,0,1,300,32.24c.17-.19.36-.37.55-.55-.19-.18-.38-.36-.55-.55A12.73,12.73,0,0,1,298.34,28a6.32,6.32,0,0,0-1.42-2.13c-.36-.32-.77-.58-1.15-.87a6.28,6.28,0,0,1,3.38.19c5.76,2,6.62,5.43,10.4,4.18h0a83.18,83.18,0,0,1,24.33-6.52,7,7,0,0,1,.56-1.31c.54-.84,1.18-1.61,1.77-2.41a4.43,4.43,0,0,0,1-3c0-.24,0-.48,0-.73a1.32,1.32,0,0,1,.3.07c.34.16.68.3,1,.48a18.93,18.93,0,0,1,5.18,4.33q.87,1,1.71,2c12.91.36,22.16,4,25.43,9.38-2.92,4.77-10.62,8.23-21.45,9.17-.19.28-.37.55-.57.82a19.44,19.44,0,0,1-5.19,4.61.61.61,0,0,1,0-.18l.18-.55a5.89,5.89,0,0,0-.05-4.45h-.43a84.67,84.67,0,0,1-34.08-7.2c-3.53-1-4.5,2.32-10.11,4.27a6.37,6.37,0,0,1-3.38.18c.38-.28.79-.54,1.15-.86a6.46,6.46,0,0,0,1.42-2.14"/><path class="cls-3" d="M292.89,98.14a12.8,12.8,0,0,1,1.6-3c.17-.18.35-.36.54-.53-.19-.18-.37-.35-.54-.54a12.61,12.61,0,0,1-1.6-3,6,6,0,0,0-1.37-2.06c-.35-.31-.74-.57-1.11-.84a6.17,6.17,0,0,1,3.27.18c5.58,1.93,6.41,5.26,10.07,4h0A80.15,80.15,0,0,1,327.31,86a6,6,0,0,1,.54-1.27c.52-.81,1.14-1.56,1.71-2.34a4.21,4.21,0,0,0,1-2.86c0-.23,0-.47,0-.71a1.32,1.32,0,0,1,.3.07c.32.15.65.29,1,.46a18.58,18.58,0,0,1,5,4.2c.56.64,1.1,1.29,1.65,1.94,12.51.35,21.46,3.91,24.62,9.08-2.83,4.62-10.28,8-20.77,8.88-.17.27-.36.54-.55.79a18.44,18.44,0,0,1-5,4.47,1,1,0,0,1,0-.18c.06-.17.12-.35.17-.52a5.75,5.75,0,0,0,0-4.32h-.43a82,82,0,0,1-33-7c-3.42-1-4.36,2.25-9.79,4.13a6,6,0,0,1-3.27.18c.37-.27.76-.52,1.11-.83a6.13,6.13,0,0,0,1.37-2.07"/><path class="cls-3" d="M199.06,107.56a12.09,12.09,0,0,1,1.6-3c.17-.19.35-.36.54-.54-.19-.18-.37-.35-.54-.53a12.33,12.33,0,0,1-1.6-3,6.24,6.24,0,0,0-1.37-2.06c-.35-.31-.75-.56-1.11-.83a6,6,0,0,1,3.26.17c5.58,1.93,6.42,5.27,10.08,4h0a80.47,80.47,0,0,1,23.55-6.32,6.58,6.58,0,0,1,.55-1.27c.52-.81,1.13-1.56,1.71-2.34a4.32,4.32,0,0,0,1-2.86c0-.23,0-.47,0-.71a1.71,1.71,0,0,1,.29.08,9.66,9.66,0,0,1,1,.46A18.35,18.35,0,0,1,243,93c.56.64,1.11,1.29,1.66,2,12.5.34,21.46,3.91,24.62,9.07-2.83,4.63-10.28,8-20.77,8.89-.18.26-.36.53-.55.79a18.7,18.7,0,0,1-5,4.46.92.92,0,0,1,0-.17c0-.18.11-.35.17-.53a5.77,5.77,0,0,0,0-4.31h-.43a82,82,0,0,1-33-7c-3.43-1-4.36,2.25-9.8,4.13a6,6,0,0,1-3.26.17c.36-.27.76-.52,1.11-.83a6.24,6.24,0,0,0,1.37-2.06"/><path class="cls-3" d="M205.43,20a12.73,12.73,0,0,1,1.65-3.14,7.3,7.3,0,0,1,.56-.55c-.2-.19-.39-.37-.56-.56a12.73,12.73,0,0,1-1.65-3.14A6.27,6.27,0,0,0,204,10.43c-.36-.32-.77-.58-1.15-.86a6.37,6.37,0,0,1,3.38.18c5.76,2,6.62,5.44,10.4,4.18h0A82.87,82.87,0,0,1,241,7.42a7.08,7.08,0,0,1,.56-1.32c.54-.83,1.18-1.61,1.77-2.41a4.43,4.43,0,0,0,1-3c0-.24,0-.48,0-.73a2.33,2.33,0,0,1,.31.08c.33.15.67.3,1,.47a19,19,0,0,1,5.18,4.34q.87,1,1.71,2c12.92.35,22.16,4,25.43,9.37C275,21,267.33,24.5,256.5,25.44c-.18.28-.37.55-.57.82a19.27,19.27,0,0,1-5.19,4.61c0-.09,0-.14,0-.18s.11-.36.17-.54a6,6,0,0,0,0-4.46h-.44a84.68,84.68,0,0,1-34.08-7.21c-3.53-1-4.5,2.33-10.11,4.27a6.27,6.27,0,0,1-3.38.18c.38-.28.79-.54,1.15-.86A6.27,6.27,0,0,0,205.43,20"/><path class="cls-3" d="M321.65,65.28a12.73,12.73,0,0,1,1.65-3.14,7.3,7.3,0,0,1,.56-.55,7.3,7.3,0,0,1-.56-.55,12.62,12.62,0,0,1-1.65-3.15,6.27,6.27,0,0,0-1.42-2.13c-.36-.32-.77-.58-1.15-.86a6.37,6.37,0,0,1,3.38.18c5.76,2,6.62,5.44,10.4,4.18h0a83.18,83.18,0,0,1,24.33-6.52,6.71,6.71,0,0,1,.56-1.31c.54-.84,1.18-1.62,1.77-2.42a4.4,4.4,0,0,0,1-3c0-.24,0-.49,0-.74a2.33,2.33,0,0,1,.31.08c.33.15.67.3,1,.47A19.14,19.14,0,0,1,367,50.22q.87,1,1.71,2c12.92.36,22.16,4,25.43,9.37-2.92,4.78-10.62,8.24-21.45,9.17-.18.28-.37.56-.57.82A19.27,19.27,0,0,1,367,76.2c0-.09,0-.14,0-.18s.11-.36.17-.54a5.94,5.94,0,0,0,0-4.45h-.44a84.51,84.51,0,0,1-34.08-7.21c-3.53-1-4.5,2.33-10.11,4.27a6.18,6.18,0,0,1-3.38.18c.38-.28.79-.54,1.15-.86a6.27,6.27,0,0,0,1.42-2.13"/></svg>