<svg id="Layer_1" data-name="Layer 1" xmlns="http://www.w3.org/2000/svg" viewBox="0 0 106.55 106.54"><defs><style>.cls-1{fill:#0ea7c9;}.cls-2{fill:#fff;}</style></defs><path class="cls-1" d="M18.8,0H87.69c.55.07,1.1.12,1.64.2a19.08,19.08,0,0,1,9.43,4,19.6,19.6,0,0,1,7.78,16q0,33.08,0,66.15c0,.74,0,1.48-.11,2.22a20,20,0,0,1-19.85,18q-33.31.06-66.63,0a20.21,20.21,0,0,1-3.72-.36,19,19,0,0,1-9.37-4.56A19.22,19.22,0,0,1,0,86.86Q0,53.34,0,19.8a18.73,18.73,0,0,1,.29-3.26A19.66,19.66,0,0,1,7.8,4.16a19.27,19.27,0,0,1,9.44-4L18.8,0M57.54,90.42V90q0-14,0-28.06A9.61,9.61,0,0,1,58.77,57a8.4,8.4,0,0,1,10.68-3.75,6.43,6.43,0,0,1,3.36,4.06A18,18,0,0,1,73.63,63q0,13.49,0,27v.42H90.32V62.19a38.54,38.54,0,0,0-.45-6.26,22.82,22.82,0,0,0-2.6-7.65,15.68,15.68,0,0,0-7.53-6.85,20.16,20.16,0,0,0-10.88-1.35,14.55,14.55,0,0,0-10.09,6c-.4.54-.78,1.1-1.18,1.65h-.1V40.91H40.73V90.42ZM16.3,40.9v.38c0,2.3,0,4.59,0,6.89q0,8.89,0,17.78,0,12,0,24.1c0,.31.09.39.39.39h16.1V40.9ZM15.27,26A8,8,0,0,0,20,33.53a10.47,10.47,0,0,0,6.51.64,8.28,8.28,0,0,0,4.84-2.69,8,8,0,0,0,1.79-7.28,7.75,7.75,0,0,0-4.92-5.83A10.69,10.69,0,0,0,22,17.92,8.07,8.07,0,0,0,15.27,26"/><path class="cls-2" d="M57.54,90.42H40.73V40.91H57.49v6.82h.1c.4-.55.78-1.11,1.18-1.65a14.55,14.55,0,0,1,10.09-6,20.16,20.16,0,0,1,10.88,1.35,15.68,15.68,0,0,1,7.53,6.85,22.82,22.82,0,0,1,2.6,7.65,38.54,38.54,0,0,1,.45,6.26V90.4H73.63V90q0-13.48,0-27a17.94,17.94,0,0,0-.82-5.73,6.43,6.43,0,0,0-3.36-4.06A8.4,8.4,0,0,0,58.77,57a9.61,9.61,0,0,0-1.23,4.91q0,14,0,28.06Z"/><path class="cls-2" d="M16.3,40.9H32.88V90.42H16.78c-.3,0-.39-.07-.39-.39l0-24.1q0-8.89-.05-17.78c0-2.3,0-4.59,0-6.89V40.9"/><path class="cls-2" d="M15.27,26A8.07,8.07,0,0,1,22,17.92a10.69,10.69,0,0,1,6.23.45,7.75,7.75,0,0,1,4.92,5.83,8,8,0,0,1-1.79,7.28,8.28,8.28,0,0,1-4.84,2.69A10.47,10.47,0,0,1,20,33.53,8,8,0,0,1,15.27,26"/></svg>