<svg id="Layer_1" data-name="Layer 1" xmlns="http://www.w3.org/2000/svg" viewBox="0 0 108.82 51.19"><defs><style>.cls-1{fill:#6e2d7d;}.cls-2{fill:#fff;}</style></defs><path class="cls-1" d="M105.11,35.36c-.63-1.35-1.36-3.44-2.39-4.55-.26-.28-.53-.54-.81-.81.28-.26.55-.52.81-.8,1-1.11,1.76-3.2,2.39-4.55a9.17,9.17,0,0,1,2-3.09c.52-.46,1.12-.84,1.66-1.25a9.16,9.16,0,0,0-4.89.27c-8.35,2.89-9.6,7.88-15.08,6.06h0A120,120,0,0,0,53.6,17.19a9.81,9.81,0,0,0-.82-1.9c-.78-1.21-1.7-2.34-2.57-3.5a6.41,6.41,0,0,1-1.47-4.28c0-.35,0-.7,0-1.07a3.43,3.43,0,0,0-.44.12c-.49.22-1,.43-1.46.68a27.67,27.67,0,0,0-7.51,6.28c-.84,1-1.66,1.94-2.48,2.92C18.14,17,4.73,22.29,0,30c5,8.15,19.58,13.66,39.89,13.66,17.54,0,35.53-4.08,49.38-10.45,5.13-1.43,6.53,3.37,14.66,6.19a9.16,9.16,0,0,0,4.89.27c-.54-.41-1.14-.79-1.66-1.25a9.17,9.17,0,0,1-2-3.09"/><path class="cls-2" d="M27.84,5.13A5.91,5.91,0,1,1,21.2.05a5.92,5.92,0,0,1,6.64,5.08"/><path class="cls-2" d="M17.73,13.71a2.82,2.82,0,1,1-3.17-2.42,2.82,2.82,0,0,1,3.17,2.42"/><path class="cls-2" d="M23.8,31.31a11.1,11.1,0,0,1-5.7,8.47,83.78,83.78,0,0,0,21.79,2.6,124.86,124.86,0,0,0,29.79-3.73,108.41,108.41,0,0,0,20.65-7.34Z"/><path class="cls-2" d="M16.24,30a3.48,3.48,0,1,1-3.48-3.48A3.48,3.48,0,0,1,16.24,30"/><path class="cls-1" d="M14.67,30a1.91,1.91,0,1,1-1.91-1.91A1.9,1.9,0,0,1,14.67,30"/><path class="cls-1" d="M28.76,39.57l.07.12c1,1.61,2,3.29,3.08,4.82a28,28,0,0,0,7.53,6.68,1.07,1.07,0,0,0,0-.26c-.08-.27-.17-.53-.26-.79-1-3.16-.8-6.08,1.54-8.65a25.17,25.17,0,0,0,2.12-2.61,3.54,3.54,0,0,0,.73-2.62,19.33,19.33,0,0,1-9.38-.07s-6,2.09-5.43,3.38"/></svg>