<svg id="Layer_1" data-name="Layer 1" xmlns="http://www.w3.org/2000/svg" xmlns:xlink="http://www.w3.org/1999/xlink" viewBox="0 0 228 260.39"><defs><style>.cls-1{fill:none;}.cls-2{clip-path:url(#clip-path);}.cls-3{fill:#fff;}.cls-4{font-size:57.06px;font-family:AmericanTypewriter-Semibold, AmericanTypewriter Semibold;font-weight:600;}.cls-11,.cls-4,.cls-5{fill:#6e2d7d;}.cls-5{font-size:22.46px;font-family:AmericanTypewriter-Condensed, AmericanTypewriter Condensed;}.cls-6{letter-spacing:-0.05em;}.cls-7{letter-spacing:-0.05em;}.cls-8{letter-spacing:-0.05em;}.cls-9{letter-spacing:-0.05em;}.cls-10{fill:#eb7d00;}.cls-12{fill:#0ea7c9;}.cls-13{clip-path:url(#clip-path-3);}</style><clipPath id="clip-path"><rect class="cls-1" x="-3.9" width="231.9" height="260.39"/></clipPath><clipPath id="clip-path-3"><rect class="cls-1" x="123.31" y="147.96" width="56.44" height="74.62" transform="translate(-52.58 310.27) rotate(-82.2)"/></clipPath></defs><g class="cls-2"><rect class="cls-3" x="-11.67" y="60.7" width="250.07" height="186.34" transform="translate(-54.46 245.32) rotate(-82.2)"/></g><text class="cls-4" transform="translate(38.71 87.61) rotate(7.8)">NEWS</text><text class="cls-5" transform="translate(33.01 129.29) rotate(7.8)"><tspan class="cls-6">READ A</tspan><tspan class="cls-7" x="63.75" y="0">LL</tspan><tspan class="cls-8" x="82.71" y="0" xml:space="preserve"> A</tspan><tspan class="cls-9" x="99.01" y="0">B</tspan><tspan class="cls-6" x="110.07" y="0">OUT IT</tspan><tspan x="165.93" y="0">!</tspan></text><g class="cls-2"><rect class="cls-10" x="117.11" y="31.04" width="6.76" height="162.16" transform="translate(-6.94 216.29) rotate(-82.2)"/><rect class="cls-10" x="126.59" y="-33.05" width="6.76" height="162.16" transform="translate(64.75 170.28) rotate(-82.2)"/><rect class="cls-11" x="63.32" y="158.94" width="4.36" height="74.61" transform="translate(-137.82 234.51) rotate(-82.2)"/><rect class="cls-11" x="62.22" y="166.95" width="4.36" height="74.61" transform="translate(-146.71 240.36) rotate(-82.2)"/><rect class="cls-11" x="61.12" y="174.97" width="4.36" height="74.61" transform="translate(-155.6 246.2) rotate(-82.2)"/><rect class="cls-11" x="60.02" y="182.99" width="4.36" height="74.61" transform="translate(-164.5 252.04) rotate(-82.2)"/><rect class="cls-11" x="58.92" y="191.01" width="4.36" height="74.61" transform="translate(-173.39 257.89) rotate(-82.2)"/><rect class="cls-11" x="57.83" y="199.03" width="4.36" height="74.61" transform="translate(-182.28 263.73) rotate(-82.2)"/><rect class="cls-11" x="56.73" y="207.04" width="4.36" height="74.61" transform="translate(-191.18 269.57) rotate(-82.2)"/><rect class="cls-11" x="55.63" y="215.06" width="4.36" height="74.61" transform="translate(-200.07 275.41) rotate(-82.2)"/><rect class="cls-11" x="54.53" y="223.08" width="4.36" height="74.61" transform="translate(-208.96 281.26) rotate(-82.2)"/><rect class="cls-11" x="69.91" y="110.8" width="4.36" height="74.61" transform="translate(-84.44 199.44) rotate(-82.2)"/><rect class="cls-11" x="68.81" y="118.82" width="4.36" height="74.61" transform="translate(-93.33 205.28) rotate(-82.2)"/><rect class="cls-11" x="67.71" y="126.84" width="4.36" height="74.61" transform="translate(-102.22 211.13) rotate(-82.2)"/><rect class="cls-11" x="66.61" y="134.86" width="4.36" height="74.61" transform="translate(-111.12 216.97) rotate(-82.2)"/><rect class="cls-11" x="65.51" y="142.88" width="4.36" height="74.61" transform="translate(-120.01 222.81) rotate(-82.2)"/><rect class="cls-11" x="64.42" y="150.9" width="4.36" height="74.61" transform="translate(-128.9 228.65) rotate(-82.2)"/><rect class="cls-11" x="63.32" y="158.91" width="4.36" height="74.61" transform="translate(-137.79 234.5) rotate(-82.2)"/><rect class="cls-11" x="62.22" y="166.93" width="4.36" height="74.61" transform="translate(-146.69 240.34) rotate(-82.2)"/><rect class="cls-11" x="61.12" y="174.95" width="4.36" height="74.61" transform="translate(-155.58 246.18) rotate(-82.2)"/><rect class="cls-11" x="144.1" y="186.33" width="4.36" height="74.61" transform="translate(-95.14 338.23) rotate(-82.2)"/><rect class="cls-11" x="143" y="194.35" width="4.36" height="74.61" transform="translate(-104.03 344.07) rotate(-82.2)"/><rect class="cls-11" x="141.9" y="202.37" width="4.36" height="74.61" transform="translate(-112.92 349.92) rotate(-82.2)"/><rect class="cls-11" x="140.8" y="210.39" width="4.36" height="74.61" transform="translate(-121.82 355.76) rotate(-82.2)"/><rect class="cls-11" x="139.71" y="218.41" width="4.36" height="74.61" transform="translate(-130.71 361.6) rotate(-82.2)"/><rect class="cls-11" x="138.61" y="226.42" width="4.36" height="74.61" transform="translate(-139.6 367.44) rotate(-82.2)"/><rect class="cls-12" x="123.31" y="147.96" width="56.44" height="74.62" transform="translate(-52.58 310.27) rotate(-82.2)"/></g><g class="cls-13"><path class="cls-11" d="M229.25,203.48c-.48-1.54-.94-3.88-1.89-5.23-.23-.33-.49-.66-.75-1,.34-.24.67-.48,1-.74,1.28-1,2.36-3.18,3.24-4.53a9.75,9.75,0,0,1,2.66-3,22.14,22.14,0,0,1,2-1.09,9.88,9.88,0,0,0-5.28-.44c-9.39,1.88-11.47,7.05-17.07,4.29h0a130,130,0,0,0-36.44-15.32,10,10,0,0,0-.59-2.16c-.66-1.42-1.49-2.76-2.24-4.13a7,7,0,0,1-1-4.81c.08-.38.11-.76.16-1.15a3.46,3.46,0,0,0-.49.06c-.56.16-1.12.32-1.66.52a30,30,0,0,0-9,5.64c-1,.9-2.06,1.83-3.08,2.76-20.16-2.19-35.33,1.56-41.54,9.16,4.15,9.48,19,17.54,40.79,20.52,18.82,2.58,38.72.85,54.53-4,5.7-.78,6.5,4.58,14.82,8.79a9.83,9.83,0,0,0,5.21,1c-.53-.52-1.12-1-1.61-1.59a10,10,0,0,1-1.75-3.62"/><path class="cls-3" d="M142.29,188.05a11.62,11.62,0,0,1-7.13,8,88.53,88.53,0,0,0,22.27,5.81,131.34,131.34,0,0,0,31.48.36,113,113,0,0,0,22.5-4.7Z"/><path class="cls-3" d="M134.69,184.72a3.77,3.77,0,1,1-3.22-4.25,3.76,3.76,0,0,1,3.22,4.25"/><path class="cls-11" d="M133,184.49a2.06,2.06,0,1,1-1.77-2.33,2.07,2.07,0,0,1,1.77,2.33"/><path class="cls-11" d="M146.72,196.79l.06.14c.86,1.88,1.6,3.82,2.6,5.62a30,30,0,0,0,7.09,8.27,1.31,1.31,0,0,0,0-.27c0-.3-.11-.6-.16-.89-.67-3.55,0-6.64,2.92-9a28.38,28.38,0,0,0,2.65-2.49,3.84,3.84,0,0,0,1.17-2.71A20.92,20.92,0,0,1,153,194s-6.8,1.35-6.32,2.83"/></g></svg>