<svg id="Layer_1" data-name="Layer 1" xmlns="http://www.w3.org/2000/svg" viewBox="0 0 252.76 162.43"><defs><style>.cls-1{fill:#6e2d7d;}.cls-2{fill:#fff;}</style></defs><path class="cls-1" d="M232.82,108.57c-.38-3.53-.41-8.79-1.89-12.09-.36-.82-.78-1.62-1.21-2.43.84-.38,1.66-.75,2.44-1.18,3.2-1.72,6.43-5.87,8.89-8.43a21.88,21.88,0,0,1,7-5.39c1.53-.64,3.16-1,4.71-1.53a21.83,21.83,0,0,0-11.23-3.17c-21.05.11-27.7,10.39-38.64,2.08v0c-19.38-18.21-44.61-35.32-72.21-48.4a22.68,22.68,0,0,0-.37-4.91c-.84-3.34-2.05-6.58-3.1-9.86-1.16-3.59-1.51-7.18,0-10.79.32-.77.55-1.58.83-2.4A7.36,7.36,0,0,0,126.9,0c-1.27.12-2.55.21-3.81.42-7.81,1.34-15,4.47-21.76,8.39-2.63,1.51-5.22,3.08-7.82,4.66C50.92.27,16.61,2,0,15.79,5,38,33.65,61.64,79.41,77.24,119,90.72,162.63,95.35,198.76,91.65c12.65.71,12.11,12.61,28.28,25.21a21.79,21.79,0,0,0,10.83,4.35c-.93-1.34-2-2.65-2.79-4.09a21.8,21.8,0,0,1-2.26-8.55"/><path class="cls-2" d="M51.62,38.69A25.63,25.63,0,0,1,32.87,52.93c12.37,8.38,28,15.87,45.63,21.9a287.94,287.94,0,0,0,67.79,14,248.81,248.81,0,0,0,50.54-.67Z"/><path class="cls-2" d="M36.61,28.3a8.29,8.29,0,1,1-5.17-10.52A8.3,8.3,0,0,1,36.61,28.3"/><path class="cls-1" d="M33.07,27.09a4.55,4.55,0,1,1-2.84-5.77,4.55,4.55,0,0,1,2.84,5.77"/><path class="cls-1" d="M57.5,59.41l.06.33c1.07,4.41,1.87,8.9,3.25,13.21,2.48,7.69,6.73,14.45,11.83,20.85a2.3,2.3,0,0,0,.2-.58c0-.67,0-1.33,0-2,0-7.93,2.85-14.33,10.11-18.31a60.17,60.17,0,0,0,6.78-4.25,8.53,8.53,0,0,0,3.66-5.36c-7.67-1-14.79-3-21.09-7.35,0,0-15.25,0-14.83,3.45"/><path class="cls-2" d="M175.66,118a43.94,43.94,0,0,1,8.57,7.77,19.33,19.33,0,0,1,4.31,14.47,62.25,62.25,0,0,0-.31,9.45c.49,7.75,8.7,14,16.29,12.47a11.46,11.46,0,0,0,7.11-5,14.62,14.62,0,0,0,2.44-10.84c-1.21-8.24-5.67-14.71-11.69-20.12-7.38-6.62-16.19-9.15-26-8.38a1.3,1.3,0,0,0-.33.07,3.63,3.63,0,0,0-.39.16"/><path class="cls-2" d="M185.81,41.94a22.69,22.69,0,0,0,5.93.1,9.92,9.92,0,0,0,6.67-3.91,31.61,31.61,0,0,1,3.19-3.64,7.27,7.27,0,0,1,10.46,1A5.88,5.88,0,0,1,213,39.9a7.51,7.51,0,0,1-2.88,4.91c-3.34,2.66-7.27,3.51-11.41,3.43a17.1,17.1,0,0,1-12.66-6,.71.71,0,0,1-.1-.14,1.37,1.37,0,0,1-.09-.2"/></svg>