<svg id="Layer_1" data-name="Layer 1" xmlns="http://www.w3.org/2000/svg" viewBox="0 0 144.53 117.59"><defs><style>.cls-1{fill:#eb7d00;}.cls-2{fill:#e24114;}.cls-3{fill:#fff;}</style></defs><path class="cls-1" d="M109,5.86a27.06,27.06,0,0,1-1.35,7.05c-1.32,4.48-2.74,8.94-4,13.44a34.88,34.88,0,0,0-1.32,8.46,12.87,12.87,0,0,0,6,11.52,40.14,40.14,0,0,0,11,5.07c4.57,1.45,9.18,2.76,13.75,4.23a41.07,41.07,0,0,1,5.08,2.14,8.81,8.81,0,0,1,2.42,1.7,7.11,7.11,0,0,1,1.6,2.46,3.35,3.35,0,0,1-1.66,4.34,13.9,13.9,0,0,1-5.76,1.65c-3.28.33-6.57.52-9.86.79-4.47.38-8.94.71-13.4,1.21a27.45,27.45,0,0,0-5,1.23A11.23,11.23,0,0,0,99,78.62a28.2,28.2,0,0,0-1.52,9.88c0,3.9.25,7.8.43,11.7a55.91,55.91,0,0,1,0,10.9,15.16,15.16,0,0,1-1,3.48,5.44,5.44,0,0,1-1.46,1.94,3.64,3.64,0,0,1-5.39-.26,14.83,14.83,0,0,1-2.92-4.67c-1.68-4-3.27-8.08-4.91-12.12a53.4,53.4,0,0,0-5.91-11.4A19.51,19.51,0,0,0,72,83.66c-3.24-2.37-6.9-2.64-10.7-2.13C56,82.25,51.05,84.17,46.05,86c-4,1.4-8,2.76-12,4a13.29,13.29,0,0,1-4,.51,4.13,4.13,0,0,1-4.15-5.68A8.24,8.24,0,0,1,27.36,82a52.79,52.79,0,0,1,5.1-5.26c3.82-3.34,7.8-6.48,11.65-9.78a36,36,0,0,0,6.77-7.48A16,16,0,0,0,53.27,54a12,12,0,0,0-1.08-7.57,37.3,37.3,0,0,0-6.47-9.27c-2.72-3-5.54-6-8.22-9a43.18,43.18,0,0,1-3.34-4.49,10,10,0,0,1-1.1-2.44A4.71,4.71,0,0,1,37.87,15a12.15,12.15,0,0,1,5.78,1.79c3.64,2.14,7.21,4.38,10.78,6.63s7,4.53,11,5.94A25.43,25.43,0,0,0,71,30.69c3.48.41,6.46-.92,9.11-3.1a35.52,35.52,0,0,0,6.87-8c2.52-3.8,4.9-7.7,7.44-11.48A50,50,0,0,1,98.44,3,10.52,10.52,0,0,1,101.22.84c3.94-2.18,7.69,0,7.76,5M68.16,60.54a4.34,4.34,0,1,0,4.53,4.15,4.34,4.34,0,0,0-4.53-4.15m1.54-9.32a4.33,4.33,0,1,0-4.53-4.15,4.35,4.35,0,0,0,4.53,4.15M84,65.82a4.33,4.33,0,1,0,4.47,4.23A4.33,4.33,0,0,0,84,65.82M91.43,58a4.34,4.34,0,1,0,4.26-4.44A4.35,4.35,0,0,0,91.43,58M87.09,46.83a4.33,4.33,0,1,0-4.47-4.21,4.31,4.31,0,0,0,4.47,4.21m25.38,12.51a3.64,3.64,0,1,0-3.53,3.77,3.65,3.65,0,0,0,3.53-3.77m-20-25.21a3.63,3.63,0,1,0-3.74-3.53,3.58,3.58,0,0,0,3.74,3.53M86.56,79.44a3.59,3.59,0,0,0-3.5,3.76,3.63,3.63,0,1,0,3.5-3.76M60.45,71.12a3.61,3.61,0,0,0-3.78-3.5,3.64,3.64,0,1,0,3.78,3.5m2.82-33a3.64,3.64,0,1,0-7.27.25,3.64,3.64,0,0,0,7.27-.25M89,96.72a3,3,0,1,0-3.1-2.88A3,3,0,0,0,89,96.72M96.84,23.5a3,3,0,0,0,2.92-3.07,3,3,0,0,0-6,.15,3,3,0,0,0,3.08,2.92M54.35,31a3,3,0,1,0-2.92,3.07A3,3,0,0,0,54.35,31m65.44,32.64a3,3,0,1,0-3.1-2.88,3,3,0,0,0,3.1,2.88m-72.37,16a3,3,0,0,0,2.91-3.08,3,3,0,1,0-2.91,3.08M42,25.15a2.47,2.47,0,1,0,2.35-2.56A2.48,2.48,0,0,0,42,25.15m89.24,36.52a2.45,2.45,0,0,0-2.51-2.39,2.47,2.47,0,1,0,.16,4.93,2.44,2.44,0,0,0,2.35-2.54m-92,17a2.44,2.44,0,0,0-2.39,2.51,2.47,2.47,0,1,0,2.39-2.51m61.36-64A2.48,2.48,0,0,0,103,12.07a2.51,2.51,0,0,0-2.54-2.39,2.46,2.46,0,0,0-2.38,2.6,2.43,2.43,0,0,0,2.55,2.33M88.27,102.79a2.48,2.48,0,0,0,2.49,2.42,2.51,2.51,0,0,0,2.43-2.56,2.46,2.46,0,0,0-4.92.14M34.63,84.6a1.94,1.94,0,1,0-1.84,2,2,2,0,0,0,1.84-2m59.42,25.49a1.95,1.95,0,1,0-1.9,2,1.94,1.94,0,0,0,1.9-2m42.26-45.41a1.95,1.95,0,1,0-2-1.9,2,2,0,0,0,2,1.9M40.78,19.93a1.94,1.94,0,1,0-1.88,2,1.93,1.93,0,0,0,1.88-2m63-12.7a1.87,1.87,0,0,0,1.88-2,1.92,1.92,0,0,0-3.84.07,1.89,1.89,0,0,0,2,1.9"/><path class="cls-2" d="M68.16,60.54A4.34,4.34,0,1,1,64,65.06a4.36,4.36,0,0,1,4.16-4.52"/><path class="cls-2" d="M69.7,51.22a4.33,4.33,0,1,1,4.17-4.51,4.36,4.36,0,0,1-4.17,4.51"/><path class="cls-2" d="M84,65.82a4.33,4.33,0,1,1-4.22,4.47A4.34,4.34,0,0,1,84,65.82"/><path class="cls-2" d="M91.43,58a4.34,4.34,0,1,1,4.44,4.26A4.35,4.35,0,0,1,91.43,58"/><path class="cls-2" d="M87.09,46.83a4.33,4.33,0,1,1,4.19-4.49,4.3,4.3,0,0,1-4.19,4.49"/><path class="cls-2" d="M112.47,59.34a3.64,3.64,0,1,1-3.79-3.5,3.65,3.65,0,0,1,3.79,3.5"/><path class="cls-2" d="M92.49,34.13a3.58,3.58,0,0,1-3.74-3.53,3.63,3.63,0,0,1,3.48-3.73,3.63,3.63,0,1,1,.26,7.26"/><path class="cls-2" d="M86.56,79.44A3.62,3.62,0,0,1,90.32,83a3.63,3.63,0,0,1-7.26.23,3.6,3.6,0,0,1,3.5-3.76"/><path class="cls-2" d="M60.45,71.12a3.62,3.62,0,0,1-3.51,3.77,3.64,3.64,0,0,1-.27-7.27,3.61,3.61,0,0,1,3.78,3.5"/><path class="cls-2" d="M63.27,38.1a3.64,3.64,0,0,1-7.27.24,3.64,3.64,0,1,1,7.27-.24"/><path class="cls-2" d="M89,96.72a3,3,0,1,1,2.88-3.11A3,3,0,0,1,89,96.72"/><path class="cls-2" d="M96.84,23.5a3,3,0,0,1-3.08-2.92,3,3,0,0,1,6-.15,3,3,0,0,1-2.92,3.07"/><path class="cls-2" d="M54.35,31a3,3,0,1,1-3.09-2.92A3,3,0,0,1,54.35,31"/><path class="cls-2" d="M119.79,63.65a3,3,0,0,1-.26-6,3,3,0,1,1,.26,6"/><path class="cls-2" d="M47.43,79.62a3,3,0,0,1-3.09-2.91,3,3,0,0,1,6-.17,3,3,0,0,1-2.9,3.08"/><path class="cls-2" d="M42,25.15a2.47,2.47,0,1,1,2.54,2.37A2.48,2.48,0,0,1,42,25.15"/><path class="cls-2" d="M131.23,61.67a2.44,2.44,0,0,1-2.35,2.54,2.47,2.47,0,1,1-.16-4.93,2.45,2.45,0,0,1,2.51,2.39"/><path class="cls-2" d="M39.26,78.66a2.46,2.46,0,1,1-2.39,2.51,2.45,2.45,0,0,1,2.39-2.51"/><path class="cls-2" d="M100.62,14.61a2.43,2.43,0,0,1-2.55-2.33,2.46,2.46,0,0,1,2.38-2.6A2.51,2.51,0,0,1,103,12.07a2.47,2.47,0,0,1-2.37,2.54"/><path class="cls-2" d="M88.27,102.79a2.46,2.46,0,0,1,4.92-.14,2.46,2.46,0,1,1-4.92.14"/><path class="cls-2" d="M34.63,84.6a1.94,1.94,0,1,1-2-1.85,2,2,0,0,1,2,1.85"/><path class="cls-2" d="M94.05,110.09a1.95,1.95,0,1,1-2-1.86,1.94,1.94,0,0,1,2,1.86"/><path class="cls-2" d="M136.31,64.68a1.95,1.95,0,1,1,1.89-2,2,2,0,0,1-1.89,2"/><path class="cls-2" d="M40.78,19.93a1.94,1.94,0,1,1-2-1.84,1.93,1.93,0,0,1,2,1.84"/><path class="cls-2" d="M103.74,7.23a1.89,1.89,0,0,1-2-1.9,1.92,1.92,0,0,1,3.84-.07,1.87,1.87,0,0,1-1.88,2"/><polygon class="cls-3" points="128.71 28.23 129.61 32.26 133.5 33.66 129.95 35.77 129.82 39.9 126.72 37.17 122.75 38.33 124.38 34.53 122.06 31.11 126.17 31.5 128.71 28.23"/><polygon class="cls-3" points="6.16 67.49 10.71 71.94 16.9 70.48 14.08 76.18 17.37 81.62 11.08 80.7 6.93 85.51 5.86 79.24 0 76.78 5.63 73.83 6.16 67.49"/><polygon class="cls-3" points="52.71 97.85 53.09 101.76 56.59 103.54 52.99 105.11 52.39 108.99 49.78 106.05 45.9 106.68 47.89 103.29 46.1 99.79 49.94 100.64 52.71 97.85"/><polygon class="cls-3" points="122.72 90.06 123.9 96.31 129.81 98.66 124.23 101.71 123.81 108.06 119.19 103.7 113.02 105.26 115.74 99.52 112.35 94.14 118.65 94.94 122.72 90.06"/></svg>