<svg id="Layer_1" data-name="Layer 1" xmlns="http://www.w3.org/2000/svg" viewBox="0 0 100.05 88.93"><defs><style>.cls-1{fill:#fff;}.cls-2{fill:#6e2d7d;}</style></defs><path class="cls-1" d="M100.05,77.64A11.29,11.29,0,1,1,88.76,66.35a11.29,11.29,0,0,1,11.29,11.29"/><path class="cls-1" d="M82.85,41.42A41.43,41.43,0,1,1,41.42,0,41.43,41.43,0,0,1,82.85,41.42"/><path class="cls-2" d="M17.37,21.64Q18.17,37.17,19,54q.77-12.51,1.55-25.91c.05-.6.07-1.11.07-1.53,0-1-.14-1.4-.42-1.3a1.09,1.09,0,0,0-.32.26l-.15.05a.37.37,0,0,1-.14.13c-.62.21-.92-1.21-.93-4.26,0-3.81.54-6.07,1.64-6.7a3,3,0,0,1,1.19-.3,6.26,6.26,0,0,0,1.6-.26s.71-.58,2.06-1.63a3.77,3.77,0,0,1,.57-.31c.53-.2,1,.24,1.31,1.34A15.41,15.41,0,0,1,27.51,18a21.57,21.57,0,0,1-.38,4.25c-.25,1.23-.56,1.88-.91,1.95a.55.55,0,0,1-.54-.19c-.17-.16-.31-.23-.43-.2-.3.07-.51.85-.65,2.3,0,.06-.08,1.19-.23,3.38C23.58,41.11,22.81,52.35,22,63.11c-.17,2.18-.29,3.48-.38,3.93-.18,1.06-.52,1.45-1,1.19a5.34,5.34,0,0,1-.79-.59,5.88,5.88,0,0,0-.85-.56,8,8,0,0,0-.9-.47l-.76-.33-.11-.08a2.72,2.72,0,0,1-.85-1.87c-.15-1-.31-3-.46-6.14q-.63-12.75-1.23-24.54-.63,12.12-1.23,23.2a43.68,43.68,0,0,1-.43,5c-.15.66-.41.81-.78.48-.13-.12-.39-.4-.78-.85-.19-.23-.44-.48-.74-.78-.15-.15-.38-.35-.68-.61a9,9,0,0,1-.67-.64,3.82,3.82,0,0,1-.79-2c-.06-.34-.16-1.3-.28-2.82-.08-.92-.15-1.83-.23-2.72-.5-6.17-1-11.71-1.45-16.56,0-.53-.09-1.06-.14-1.6s-.25-.86-.43-.69a1.39,1.39,0,0,0-.29.38,2.15,2.15,0,0,1-.34.46c-.21.2-.41.13-.57-.18a3.08,3.08,0,0,1-.23-1.4,8.87,8.87,0,0,1,.31-2.25,7,7,0,0,1,.83-2,6.26,6.26,0,0,1,.87-1c.39-.4.71-.71.93-1s.58-.81,1.18-1.72a11.48,11.48,0,0,1,.93-1.27c.89-1,1.36,0,1.36,2.77,0,2.53-.27,3.94-.78,4.25l-.12,0-.14.09a.69.69,0,0,0-.24,0c-.22.15-.34.57-.34,1.25,0,.29,0,.6,0,.95.42,5.7.85,11.87,1.29,18.47.45-8.1.91-16.79,1.37-26,.1-1.85.21-3.11.32-3.75a2.4,2.4,0,0,1,.61-1.36,4.08,4.08,0,0,1,.81-.52,5.67,5.67,0,0,0,.83-.49,8.75,8.75,0,0,0,.83-.8,6.19,6.19,0,0,1,.84-.78c.39-.28.65.1.79,1.15.05.36.12,1.45.22,3.28"/><path class="cls-2" d="M37.05,74.82c-2.82-.29-4.95-3.68-6.45-9.56s-2.23-13.77-2.23-23.84c0-9.71.73-17.43,2.21-23.43s3.57-9.39,6.24-9.67,5,2.63,6.59,8.45,2.36,13.9,2.36,24.17q0,16-2.29,25.07c-1.53,6-3.68,9.1-6.43,8.81m0-53.28c-2.4.19-3.59,6.94-3.59,20.06a103.93,103.93,0,0,0,.69,14c.57,3.84,1.52,5.85,2.87,5.94,2.39.15,3.59-6.41,3.58-19.49a103.9,103.9,0,0,0-.84-15.75c-.57-3.26-1.48-4.86-2.71-4.79"/><path class="cls-2" d="M63.39,20.61C63.93,32,64.47,43.09,65,53.68c.5-8.41,1-16.52,1.48-24.28.05-.51.07-1,.07-1.34,0-.87-.13-1.35-.4-1.47a.66.66,0,0,0-.3,0l-.14-.05a.27.27,0,0,1-.15,0c-.59-.23-.9-1.86-.9-4.89,0-3.8.54-5.37,1.59-4.64a8.14,8.14,0,0,1,1.11,1.09,16.17,16.17,0,0,0,1.42,1.49s.63.27,1.74.9a4.06,4.06,0,0,1,.47.37,4.74,4.74,0,0,1,1,2.2,13.66,13.66,0,0,1,.4,3.32,8.54,8.54,0,0,1-.3,2.49c-.2.64-.43.9-.71.74a1.21,1.21,0,0,1-.43-.46,1.28,1.28,0,0,0-.35-.41c-.24-.14-.42.29-.54,1.3,0,0-.06.83-.19,2.41-.66,8.4-1.33,17.5-2,27.21-.15,2-.27,3.23-.34,3.7a3.17,3.17,0,0,1-.94,2.14,3.25,3.25,0,0,1-.75.37,4.83,4.83,0,0,0-.83.46,10.43,10.43,0,0,0-.89.62l-.78.61-.12.07c-.42.24-.72-.07-.89-1s-.33-3-.49-6.35C61.41,51.16,61,41.7,60.5,32q-.69,14.28-1.4,29.25-.26,5.48-.52,7.13c-.17,1.08-.48,1.73-.93,1.9a4.84,4.84,0,0,1-1,.19,5.24,5.24,0,0,0-1,.24,8.42,8.42,0,0,0-.89.42,4.19,4.19,0,0,1-.89.4c-.54.16-.91-.38-1.1-1.6-.1-.46-.23-1.95-.41-4.46l-.33-4.6c-.72-10.65-1.44-21.5-2.17-32.48-.08-1.19-.15-2.4-.22-3.64-.17-1.57-.4-2.38-.69-2.41a.61.61,0,0,0-.47.24c-.21.23-.4.34-.55.32-.36,0-.69-.68-1-2a22.28,22.28,0,0,1-.42-4.56,16.68,16.68,0,0,1,.56-4.75c.37-1.21.82-1.78,1.37-1.69a4,4,0,0,1,1.39.71,4.43,4.43,0,0,0,1.41.75,5.48,5.48,0,0,0,1.7-.13,2.87,2.87,0,0,1,1.29,0c1.19.37,1.78,2.67,1.78,6.82,0,3.75-.34,5.55-1,5.42a.34.34,0,0,1-.16-.12l-.18,0a1.18,1.18,0,0,0-.32-.24c-.31-.06-.46.49-.46,1.62,0,.49,0,1,0,1.63.58,10,1.14,19.79,1.71,29.4.58-12.74,1.16-25.25,1.73-37.45a44,44,0,0,1,.39-4.7c.14-.68.38-1,.73-.82a5.3,5.3,0,0,1,1,.63,6.8,6.8,0,0,0,.94.64,3.33,3.33,0,0,0,.92.24,3.28,3.28,0,0,1,.91.28c.41.22.69,1,.84,2.27,0,.45.12,1.69.22,3.71"/><path class="cls-2" d="M77.69,44.46c0,1.25-.31,2-.78,2.31-.22.13-.45.25-.68.37-.49.27-.78-.36-.84-1.91q-.28-7.45-.57-15.6c0-1.05,0-1.72-.06-2,0-2.26.65-2.6,1.81-.84a9.39,9.39,0,0,1,1.65,5c0,.43,0,.88,0,1.34-.16,3.51-.33,7.3-.5,11.33M76.55,56.33c-.44.66-.83.8-1.18.35A4.81,4.81,0,0,1,74.86,54a12.66,12.66,0,0,1,.51-3.64,3.77,3.77,0,0,1,1.18-2.08.74.74,0,0,1,1.13.23,3.34,3.34,0,0,1,.45,1.93,12.16,12.16,0,0,1-.45,3.05,9.79,9.79,0,0,1-1.13,2.8"/></svg>